<svg width="28" height="28" viewBox="0 0 28 28" fill="none" xmlns="http://www.w3.org/2000/svg">
<path fill-rule="evenodd" clip-rule="evenodd" d="M19.089 23.3882L15.9668 24.2585V23.114L15.718 22.8518H13.9307V24.187V25.1287H15.8424L18.1952 24.0558L19.089 23.3882Z" fill="#CDBDB2"/>
<path fill-rule="evenodd" clip-rule="evenodd" d="M8.90918 23.3882L11.9634 24.2585V23.114L12.2236 22.8518H13.9996V24.187V25.1287H12.0879L9.73492 24.0558L8.90918 23.3882Z" fill="#CDBDB2"/>
<path fill-rule="evenodd" clip-rule="evenodd" d="M15.7185 20.9082L15.9674 23.1137L15.6506 22.8514H12.3475L11.9629 23.1137L12.2231 20.9082L12.7321 20.5745L15.2773 20.6341L15.7185 20.9082Z" fill="white"/>
<path fill-rule="evenodd" clip-rule="evenodd" d="M17.4382 5.94678L15.9111 9.70201L15.2098 20.6337H12.7324L11.9632 9.70201L10.5605 5.94678H17.4382Z" fill="#F89C35"/>
<path fill-rule="evenodd" clip-rule="evenodd" d="M24.1127 14.1969L25.9 19.633L21.443 19.3588H18.5811V17.0103L18.7055 12.1941L19.3503 12.7186L24.1127 14.1969Z" fill="#F89D35"/>
<path fill-rule="evenodd" clip-rule="evenodd" d="M20.7402 14.8049L15.5254 14.936L16.1023 17.7494L18.5796 17.0818L20.7402 14.8049Z" fill="#D87C30"/>
<path fill-rule="evenodd" clip-rule="evenodd" d="M20.7407 14.8643L18.5801 17.01V19.1559L20.7407 14.8643Z" fill="#EA8D3A"/>
<path fill-rule="evenodd" clip-rule="evenodd" d="M18.58 17.0813L16.0348 17.7488L15.209 20.6338L15.7859 20.9676L18.58 19.2271V17.0813Z" fill="#F89D35"/>
<path fill-rule="evenodd" clip-rule="evenodd" d="M18.5806 19.2275L19.0898 23.3881L15.7188 20.9085L18.5806 19.2275Z" fill="#EB8F35"/>
<path fill-rule="evenodd" clip-rule="evenodd" d="M15.5283 14.9358L15.2119 20.6341L16.1611 17.7254L15.5283 14.9358Z" fill="#EA8E3A"/>
<path fill-rule="evenodd" clip-rule="evenodd" d="M21.5109 19.2991L18.5811 19.2275L19.0901 23.3881L21.5109 19.2991Z" fill="#D87C30"/>
<path fill-rule="evenodd" clip-rule="evenodd" d="M24.497 25.2001L19.0898 23.3881L21.5106 19.2991L25.8997 19.6328L24.497 25.2001Z" fill="#EB8F35"/>
<path fill-rule="evenodd" clip-rule="evenodd" d="M15.91 9.70264L18.6475 12.1226L20.7402 14.8049L15.5254 15.0076L15.91 9.70264Z" fill="#E8821E"/>
<path fill-rule="evenodd" clip-rule="evenodd" d="M19.0898 23.3879L15.7188 20.9082L15.9676 23.054V24.2581L18.2639 23.7932L19.0898 23.3879Z" fill="#DFCEC3"/>
<path fill-rule="evenodd" clip-rule="evenodd" d="M8.90918 23.3879L12.2236 20.9082L11.9634 23.054V24.2581L9.67839 23.7932L8.90918 23.3879Z" fill="#DFCEC3"/>
<path fill-rule="evenodd" clip-rule="evenodd" d="M16.9298 16.1396L16.2285 17.6894L18.7058 17.0099L16.9298 16.1396Z" fill="white"/>
<path fill-rule="evenodd" clip-rule="evenodd" d="M24.5659 2.80005L15.9121 9.7024L17.3714 5.94724L24.5659 2.80005Z" fill="#E88F35"/>
<path fill-rule="evenodd" clip-rule="evenodd" d="M24.5648 2.80005L25.7073 6.48368L25.0738 10.513L25.5149 10.7754L24.8815 11.3833L25.3905 11.8482L24.6892 12.5158L25.1303 12.9211L24.1123 14.2563L19.3386 12.7185C17.0083 10.7515 15.8545 9.75014 15.8997 9.7024C15.945 9.65474 18.8408 7.35396 24.5648 2.80005Z" fill="#8E5A30"/>
<path fill-rule="evenodd" clip-rule="evenodd" d="M3.8869 14.1969L2.09961 19.633L6.55654 19.3588H9.41851V17.0103L9.29408 12.1941L8.6606 12.7186L3.8869 14.1969Z" fill="#F89D35"/>
<path fill-rule="evenodd" clip-rule="evenodd" d="M7.25879 14.8049L12.4736 14.936L11.9081 17.7494L9.41938 17.0818L7.25879 14.8049Z" fill="#D87C30"/>
<path fill-rule="evenodd" clip-rule="evenodd" d="M7.25879 14.8643L9.41938 17.01V19.1559L7.25879 14.8643Z" fill="#EA8D3A"/>
<path fill-rule="evenodd" clip-rule="evenodd" d="M9.41797 17.0813L11.9632 17.7488L12.789 20.6338L12.2233 20.9676L9.41797 19.2271V17.0813Z" fill="#F89D35"/>
<path fill-rule="evenodd" clip-rule="evenodd" d="M9.41829 19.2275L8.90918 23.3881L12.2237 20.968L9.41829 19.2275Z" fill="#EB8F35"/>
<path fill-rule="evenodd" clip-rule="evenodd" d="M12.4717 14.9358L12.7881 20.6341L11.8389 17.7254L12.4717 14.9358Z" fill="#EA8E3A"/>
<path fill-rule="evenodd" clip-rule="evenodd" d="M6.48828 19.2991L9.41816 19.2275L8.90912 23.3881L6.48828 19.2991Z" fill="#D87C30"/>
<path fill-rule="evenodd" clip-rule="evenodd" d="M3.5023 25.2001L8.90947 23.3881L6.4887 19.2991L2.09961 19.6328L3.5023 25.2001Z" fill="#EB8F35"/>
<path fill-rule="evenodd" clip-rule="evenodd" d="M12.089 9.70264L9.35155 12.1226L7.25879 14.8049L12.4736 15.0076L12.089 9.70264Z" fill="#E8821E"/>
<path fill-rule="evenodd" clip-rule="evenodd" d="M11.0699 16.1396L11.7712 17.6894L9.29395 17.0099L11.0699 16.1396Z" fill="white"/>
<path fill-rule="evenodd" clip-rule="evenodd" d="M3.43457 2.80005L12.0882 9.7024L10.629 5.94724L3.43457 2.80005Z" fill="#E88F35"/>
<path fill-rule="evenodd" clip-rule="evenodd" d="M3.43353 2.80005L2.29102 6.48368L2.92449 10.513L2.48336 10.7754L3.11683 11.3833L2.60779 11.8482L3.3091 12.5158L2.86796 12.9211L3.88604 14.2563L8.65975 12.7185C10.99 10.7515 12.1438 9.75014 12.0986 9.7024C12.0533 9.65474 9.16879 7.35396 3.43353 2.80005Z" fill="#8E5A30"/>
</svg>
