<svg width="28" height="28" viewBox="0 0 28 28" fill="none" xmlns="http://www.w3.org/2000/svg">
<path fill-rule="evenodd" clip-rule="evenodd" d="M14 9.9174C11.6204 9.9174 9.78609 11.2341 8.76351 12.1562C8.61118 12.2936 8.37509 12.2938 8.22725 12.1518L6.62219 10.6099C6.47047 10.4642 6.4691 10.2256 6.62455 10.0837C7.84765 8.96714 10.4266 7 14 7C17.5734 7 20.1524 8.96714 21.3755 10.0837C21.5309 10.2256 21.5295 10.4642 21.3778 10.6099L19.7728 12.1518C19.6249 12.2938 19.3888 12.2936 19.2365 12.1562C18.2139 11.2341 16.3796 9.9174 14 9.9174ZM2.12582 15.1358C1.96779 14.9967 1.95715 14.7579 2.10225 14.6059L3.63571 12.9989C3.77709 12.8507 4.01379 12.8407 4.16779 12.9763L8.6957 16.9634C8.83929 17.0898 9.05699 17.0908 9.20171 16.9657L13.7483 13.0349C13.8921 12.9106 14.1079 12.9106 14.2517 13.0349L18.7983 16.9657C18.943 17.0908 19.1607 17.0898 19.3043 16.9634L23.8322 12.9763C23.9862 12.8407 24.2229 12.8507 24.3643 12.9989L25.8977 14.6059C26.0429 14.7579 26.0322 14.9967 25.8742 15.1358L19.323 20.9046C19.1795 21.031 18.9618 21.0319 18.8171 20.9068L14.2517 16.9598C14.1079 16.8356 13.8921 16.8356 13.7483 16.9598L9.18294 20.9068C9.03821 21.0319 8.82051 21.031 8.67701 20.9046L2.12582 15.1358Z" fill="#278FFC"/>
</svg>
