<svg width="16" height="16" viewBox="0 0 16 16" fill="none" xmlns="http://www.w3.org/2000/svg">
<path fill-rule="evenodd" clip-rule="evenodd" d="M1.33337 7.99992C1.33337 4.31325 4.31337 1.33325 8.00004 1.33325C11.6867 1.33325 14.6667 4.31325 14.6667 7.99992C14.6667 11.6866 11.6867 14.6666 8.00004 14.6666C4.31337 14.6666 1.33337 11.6866 1.33337 7.99992ZM9.92669 10.8666C10.1867 11.1266 10.6067 11.1266 10.8667 10.8666C11.12 10.6066 11.12 10.1799 10.8667 9.92657L8.94003 7.99991L10.8667 6.07324C11.1267 5.81324 11.1267 5.39324 10.8667 5.13324C10.6067 4.87324 10.1867 4.87324 9.92669 5.13324L8.00003 7.05991L6.07336 5.13324C5.81336 4.87324 5.39336 4.87324 5.13336 5.13324C5.00852 5.25779 4.93837 5.42689 4.93837 5.60324C4.93837 5.77958 5.00852 5.94869 5.13336 6.07324L7.06003 7.99991L5.13336 9.92657C5.00852 10.0511 4.93837 10.2202 4.93837 10.3966C4.93837 10.5729 5.00852 10.742 5.13336 10.8666C5.39336 11.1266 5.81336 11.1266 6.07336 10.8666L8.00003 8.93991L9.92669 10.8666Z" fill="white" fill-opacity="0.5"/>
</svg>
