<svg width="28" height="28" viewBox="0 0 28 28" fill="none" xmlns="http://www.w3.org/2000/svg">
<path fill-rule="evenodd" clip-rule="evenodd" d="M0.666992 14.0013C0.666992 6.62797 6.62699 0.667969 14.0003 0.667969C21.3737 0.667969 27.3337 6.62797 27.3337 14.0013C27.3337 21.3746 21.3737 27.3346 14.0003 27.3346C6.62699 27.3346 0.666992 21.3746 0.666992 14.0013ZM17.8536 19.7346C18.3736 20.2546 19.2136 20.2546 19.7336 19.7346C20.2403 19.2146 20.2403 18.3613 19.7336 17.8546L15.8803 14.0013L19.7336 10.1479C20.2536 9.62794 20.2536 8.78794 19.7336 8.26794C19.2136 7.74794 18.3736 7.74794 17.8536 8.26794L14.0003 12.1213L10.147 8.26794C9.62696 7.74794 8.78696 7.74794 8.26696 8.26794C8.01729 8.51705 7.87698 8.85525 7.87698 9.20794C7.87698 9.56063 8.01729 9.89884 8.26696 10.1479L12.1203 14.0013L8.26696 17.8546C8.01729 18.1037 7.87698 18.4419 7.87698 18.7946C7.87698 19.1473 8.01729 19.4855 8.26696 19.7346C8.78696 20.2546 9.62696 20.2546 10.147 19.7346L14.0003 15.8813L17.8536 19.7346Z" fill="#332B5C" fill-opacity="0.4"/>
</svg>
