<svg width="24" height="24" viewBox="0 0 24 24" fill="none" xmlns="http://www.w3.org/2000/svg">
<path d="M0.75 4.2347H12.169C12.5131 5.80122 13.9121 6.97727 15.5805 6.97727C17.2488 6.97727 18.6478 5.80127 18.9919 4.2347H23.25C23.6642 4.2347 24 3.89889 24 3.4847C24 3.07052 23.6642 2.7347 23.25 2.7347H18.9915C18.6467 1.16898 17.2459 -0.0078125 15.5805 -0.0078125C13.9141 -0.0078125 12.5139 1.1688 12.1693 2.7347H0.75C0.335812 2.7347 0 3.07052 0 3.4847C0 3.89889 0.335812 4.2347 0.75 4.2347ZM13.588 3.48667C13.588 3.484 13.588 3.48128 13.588 3.47861C13.5913 2.38328 14.4851 1.49223 15.5805 1.49223C16.6743 1.49223 17.5681 2.38206 17.5728 3.47688L17.573 3.48789C17.5712 4.58509 16.6781 5.47731 15.5805 5.47731C14.4833 5.47731 13.5904 4.58599 13.5879 3.48944L13.588 3.48667ZM23.25 19.7729H18.9915C18.6467 18.2072 17.2459 17.0304 15.5805 17.0304C13.9141 17.0304 12.5139 18.207 12.1693 19.7729H0.75C0.335812 19.7729 0 20.1086 0 20.5229C0 20.9371 0.335812 21.2729 0.75 21.2729H12.169C12.5131 22.8394 13.9121 24.0154 15.5805 24.0154C17.2488 24.0154 18.6478 22.8394 18.9919 21.2729H23.25C23.6642 21.2729 24 20.9371 24 20.5229C24 20.1086 23.6642 19.7729 23.25 19.7729ZM15.5805 22.5154C14.4833 22.5154 13.5904 21.6241 13.5879 20.5276L13.588 20.5248C13.588 20.5221 13.588 20.5195 13.588 20.5168C13.5913 19.4215 14.4851 18.5304 15.5805 18.5304C16.6743 18.5304 17.5681 19.4202 17.5728 20.515L17.573 20.526C17.5714 21.6233 16.6782 22.5154 15.5805 22.5154ZM23.25 11.2538H11.831C11.4869 9.6873 10.0879 8.5113 8.41955 8.5113C6.75117 8.5113 5.35223 9.6873 5.00808 11.2538H0.75C0.335812 11.2538 0 11.5896 0 12.0038C0 12.418 0.335812 12.7538 0.75 12.7538H5.00845C5.35331 14.3195 6.75413 15.4963 8.41955 15.4963C10.0859 15.4963 11.4861 14.3197 11.8307 12.7538H23.25C23.6642 12.7538 24 12.418 24 12.0038C24 11.5896 23.6642 11.2538 23.25 11.2538ZM10.412 12.0018C10.412 12.0046 10.412 12.0072 10.412 12.0099C10.4087 13.1052 9.51492 13.9963 8.41955 13.9963C7.32572 13.9963 6.43191 13.1065 6.42717 12.0117L6.42703 12.0007C6.42867 10.9034 7.32188 10.0113 8.41955 10.0113C9.5167 10.0113 10.4096 10.9026 10.4121 11.9992L10.412 12.0018Z" fill="#833F1D"/>
</svg>
