<svg width="16" height="16" viewBox="0 0 16 16" fill="none" xmlns="http://www.w3.org/2000/svg">
<path d="M7.95654 0.000111709C3.53895 0.0239961 -0.023765 3.62447 0.000119392 8.04276C0.0232155 12.4611 3.62597 16.023 8.04198 15.9999C12.4626 15.976 16.023 12.3756 15.9991 7.95803C15.9745 3.53823 12.3764 -0.0229844 7.95654 0.000111709ZM8.03584 14.6961C4.33762 14.7145 1.32708 11.7341 1.30627 8.03591C1.28704 4.3384 4.26518 1.32329 7.96339 1.30327C11.6624 1.28325 14.6768 4.26682 14.6968 7.96276C14.7161 11.6625 11.7333 14.6761 8.03584 14.6961ZM9.22107 11.5007L9.18796 5.52056L6.10199 5.54058L6.10814 6.8491L6.94606 6.84445L6.97073 11.5139L6.08197 11.517L6.0889 12.7669L9.96196 12.7461L9.95423 11.4969L9.22107 11.5007ZM8.04506 4.63794C8.79982 4.63486 9.25496 4.12967 9.2511 3.50891C9.23108 2.87278 8.78745 2.3876 8.06122 2.39068C7.33728 2.39533 6.86519 2.88665 6.86826 3.52278C6.87212 4.14275 7.33271 4.64338 8.04506 4.63794Z" fill="#00FFE7"/>
</svg>
