<svg width="362" height="360" viewBox="0 0 362 360" fill="none" xmlns="http://www.w3.org/2000/svg">
<path d="M190.404 77.7701H171.839C170.16 77.7701 168.806 76.4149 168.806 74.7338V3.03626C168.806 1.35524 170.16 0 171.839 0H190.404C192.083 0 193.437 1.35524 193.437 3.03626V74.7338C193.437 76.4018 192.07 77.7701 190.404 77.7701Z" fill="#2B3161"/>
<path d="M237.258 93.8507L220.803 85.2371C219.318 84.4552 218.746 82.6178 219.514 81.1323L252.698 17.5922C253.479 16.1066 255.315 15.5333 256.799 16.3021L273.255 24.9157C274.739 25.6976 275.312 27.535 274.544 29.0205L241.359 92.5606C240.578 94.0592 238.742 94.6326 237.258 93.8507Z" fill="white"/>
<path d="M271.327 129.842L260.73 114.582C259.779 113.201 260.118 111.311 261.485 110.36L320.303 69.4423C321.683 68.491 323.571 68.8298 324.521 70.1981L335.119 85.4576C336.069 86.8389 335.73 88.7284 334.363 89.6797L275.545 130.598C274.178 131.562 272.29 131.223 271.327 129.842Z" fill="#D9DEFF"/>
<path d="M284.879 177.537L282.549 159.098C282.341 157.43 283.512 155.919 285.179 155.697L356.248 146.706C357.914 146.497 359.424 147.67 359.645 149.338L361.976 167.777C362.184 169.445 361.012 170.957 359.346 171.165L288.277 180.157C286.611 180.378 285.087 179.205 284.879 177.537Z" fill="#BAC4FF"/>
<path d="M274.804 226.09L281.274 208.668C281.86 207.091 283.605 206.296 285.18 206.882L352.317 231.876C353.892 232.463 354.687 234.209 354.101 235.786L347.63 253.195C347.045 254.772 345.3 255.567 343.725 254.98L276.588 229.987C275.025 229.4 274.218 227.654 274.804 226.09Z" fill="#A6B3FF"/>
<path d="M243.402 264.442L257.202 252.01C258.452 250.89 260.366 250.994 261.485 252.232L309.42 305.516C310.54 306.767 310.435 308.683 309.199 309.804L295.399 322.235C294.149 323.356 292.235 323.252 291.116 322.014L243.181 268.729C242.061 267.478 242.166 265.563 243.402 264.442Z" fill="#91A1FF"/>
<path d="M197.824 283.873L215.802 279.247C217.43 278.83 219.083 279.807 219.5 281.436L237.309 350.879C237.726 352.508 236.749 354.163 235.122 354.58L217.143 359.206C215.516 359.623 213.863 358.646 213.446 357.017L195.637 287.574C195.22 285.945 196.209 284.29 197.824 283.873Z" fill="#7A89FF"/>
<path d="M148.444 279.949L166.514 284.197C168.141 284.575 169.157 286.217 168.779 287.846L152.428 357.654C152.05 359.283 150.41 360.299 148.782 359.921L130.712 355.673C129.085 355.295 128.07 353.653 128.447 352.024L144.799 282.216C145.176 280.574 146.817 279.558 148.444 279.949Z" fill="#6978F0"/>
<path d="M106.498 253.574L120.545 265.719C121.808 266.814 121.951 268.73 120.857 270.007L74.0554 324.281C72.9618 325.545 71.0481 325.689 69.7723 324.594L55.7251 312.449C54.4623 311.355 54.3191 309.439 55.4127 308.162L102.215 253.887C103.308 252.623 105.222 252.48 106.498 253.574Z" fill="#5E6BD6"/>
<path d="M81.5275 210.74L88.3623 228.019C88.9742 229.583 88.2191 231.342 86.6568 231.968L20.0534 258.369C18.4911 258.982 16.7336 258.226 16.1087 256.662L9.27394 239.383C8.66206 237.819 9.41714 236.06 10.9794 235.434L77.5828 209.033C79.1451 208.421 80.9156 209.189 81.5275 210.74Z" fill="#525DBA"/>
<path d="M79.2237 161.222L77.2839 179.7C77.1147 181.368 75.6175 182.58 73.9511 182.398L2.71301 174.905C1.04662 174.735 -0.164104 173.237 0.0181571 171.569L1.95793 153.091C2.12717 151.423 3.62431 150.211 5.2907 150.393L76.5288 157.886C78.1952 158.056 79.406 159.541 79.2237 161.222Z" fill="#424B96"/>
<path d="M100.105 116.251L89.8332 131.732C88.9088 133.126 87.0211 133.504 85.6281 132.579L25.9636 92.8989C24.5706 91.9737 24.1931 90.0842 25.1174 88.6899L35.3891 73.2088C36.3135 71.8145 38.2012 71.4366 39.5942 72.3618L99.2587 112.042C100.652 112.967 101.029 114.856 100.105 116.251Z" fill="#384080"/>
<path d="M139.422 86.0837L123.148 95.0362C121.677 95.8441 119.829 95.3098 119.021 93.8373L84.509 31.0009C83.7019 29.5284 84.2356 27.678 85.7067 26.87L101.98 17.9176C103.451 17.1097 105.3 17.6439 106.107 19.1165L140.619 81.9528C141.427 83.4384 140.893 85.2758 139.422 86.0837Z" fill="#333B75"/>
</svg>
