<svg width="24" height="24" viewBox="0 0 24 24" fill="current" xmlns="http://www.w3.org/2000/svg">
<path d="M22 12L17 8V11L8 11V13L17 13V16L22 12Z" fill="current"/>
<path d="M10.9993 21.001C13.4043 21.001 15.6643 20.064 17.3633 18.364L15.9493 16.95C14.6273 18.272 12.8693 19.001 10.9993 19.001C9.12928 19.001 7.37128 18.272 6.04928 16.95C4.72728 15.628 3.99828 13.87 3.99828 12C3.99828 10.13 4.72728 8.37198 6.04928 7.04998C7.37128 5.72798 9.12928 4.99898 10.9993 4.99898C12.8693 4.99898 14.6273 5.72798 15.9493 7.04998L17.3633 5.63598C15.6643 3.93598 13.4043 2.99898 10.9993 2.99898C8.59428 2.99898 6.33428 3.93598 4.63528 5.63598C2.93528 7.33498 1.99828 9.59498 1.99828 12C1.99828 14.405 2.93528 16.665 4.63528 18.364C6.33428 20.064 8.59428 21.001 10.9993 21.001Z" fill="current"/>
</svg>
