<svg width="32" height="32" viewBox="0 0 32 32" fill="none" xmlns="http://www.w3.org/2000/svg">
<path d="M4.85762 12.4643L4.77283 12.7317L4.50041 12.7987L0.831705 13.7009C0.831453 13.701 0.831203 13.7011 0.830952 13.7011C0.635962 13.7502 0.5 13.9249 0.5 14.125V17.875C0.5 18.0751 0.635944 18.2497 0.831005 18.2989C0.831255 18.2989 0.831503 18.299 0.831753 18.299L4.50047 19.2013L4.773 19.2683L4.85773 19.5359C5.0639 20.1869 5.32806 20.8195 5.6465 21.424L5.77769 21.673L5.63282 21.9143L3.94732 24.7223L3.94727 24.7224C3.84408 24.8942 3.87124 25.1148 4.01318 25.2567L6.66455 27.9081L6.6651 27.9086C6.80564 28.0496 7.02596 28.0774 7.1997 27.9735L7.20041 27.9731L7.20441 27.9707L7.22011 27.9613L7.28053 27.925L7.50318 27.7914L8.24153 27.3484L9.97688 26.3076L10.2215 26.1609L10.4723 26.2968C11.1063 26.6406 11.7729 26.9239 12.4651 27.1432L12.7326 27.228L12.7996 27.5006L13.7009 31.1683C13.701 31.1685 13.7011 31.1688 13.7011 31.1691C13.7503 31.364 13.9249 31.5 14.125 31.5H17.875C18.076 31.5 18.2505 31.3633 18.2986 31.1698C18.2986 31.1697 18.2987 31.1695 18.2987 31.1693L19.2003 27.5005L19.2673 27.2279L19.5349 27.1432C20.208 26.9299 20.861 26.6552 21.485 26.3226L21.7345 26.1896L21.9771 26.3348C22.4267 26.6041 23.1104 27.0138 23.6817 27.3562L24.4111 27.7934L24.6313 27.9254L24.6911 27.9613L24.7067 27.9706L24.7102 27.9727L24.7106 27.973L24.7109 27.9731C24.8859 28.0767 25.1069 28.0478 25.2466 27.9081L27.898 25.2567C28.04 25.1148 28.0671 24.8942 27.9639 24.7224L27.9638 24.7222L26.3269 21.9939L26.1813 21.7513L26.3143 21.5016C26.6509 20.8698 26.9281 20.2124 27.1412 19.5365L27.2257 19.2684L27.4987 19.2013L31.1693 18.2988C31.1694 18.2988 31.1695 18.2988 31.1696 18.2987C31.3631 18.2506 31.5 18.0761 31.5 17.875V14.125C31.5 13.9249 31.364 13.7502 31.1689 13.7011C31.1687 13.7011 31.1685 13.701 31.1682 13.7009L27.4992 12.7959L27.2272 12.7288L27.1424 12.4618C26.9537 11.8675 26.7167 11.2874 26.4342 10.7303L26.3094 10.4841L26.4511 10.2473L28.2804 7.19215L28.2807 7.19158C28.3839 7.01975 28.3568 6.79918 28.2148 6.65724L25.564 4.00641C25.5639 4.00636 25.5639 4.00632 25.5639 4.00627C25.4221 3.8651 25.2027 3.83727 25.0278 3.94072C25.0276 3.94087 25.0273 3.94102 25.0271 3.94117L22.0709 5.71522L21.8255 5.86248L21.5743 5.7255C20.9242 5.37109 20.2416 5.0806 19.535 4.85679L19.2685 4.77239L19.2008 4.50121C19.0623 3.94611 18.8366 3.02769 18.6457 2.24886C18.5502 1.85927 18.4634 1.50432 18.4005 1.24677L18.3258 0.941319L18.3055 0.858076L18.3002 0.836399L18.2988 0.830868L18.2988 0.830696C18.2987 0.830453 18.2987 0.83021 18.2986 0.829967C18.2504 0.636634 18.0759 0.5 17.875 0.5H14.125C13.9249 0.5 13.7502 0.635958 13.7011 0.831052C13.701 0.831313 13.7009 0.831574 13.7009 0.831835L12.7987 4.50047L12.7316 4.77303L12.464 4.85775C11.8015 5.06749 11.1582 5.33691 10.543 5.66255L10.2938 5.79439L10.0521 5.64953L7.19926 3.94022L7.19856 3.9398C7.02576 3.83587 6.80669 3.86323 6.66504 4.00532L6.66449 4.00587L4.01312 6.65724C3.87117 6.79918 3.84402 7.01975 3.94721 7.19158L3.94734 7.1918L3.51856 7.449L3.94735 7.19182L3.94739 7.19189L3.94755 7.19215L3.94818 7.1932L3.95068 7.19737L3.96048 7.2137L3.99817 7.27655L4.1369 7.5078L4.59529 8.27182C4.95373 8.86921 5.38099 9.58114 5.65648 10.0397L5.80199 10.2819L5.66956 10.5315C5.34113 11.1506 5.06905 11.7975 4.85762 12.4643ZM23.0625 16C23.0625 19.8943 19.8943 23.0625 16 23.0625C12.1057 23.0625 8.9375 19.8943 8.9375 16C8.9375 12.1057 12.1057 8.9375 16 8.9375C19.8943 8.9375 23.0625 12.1057 23.0625 16Z" fill="url(#paint0_linear_5070_14499)" stroke="white"/>
<defs>
<linearGradient id="paint0_linear_5070_14499" x1="27" y1="22.5" x2="2.5" y2="14.5" gradientUnits="userSpaceOnUse">
<stop stop-color="#8919EC"/>
<stop offset="1" stop-color="#F1C6F3"/>
</linearGradient>
</defs>
</svg>
