<svg width="16" height="16" viewBox="0 0 16 16" fill="none" xmlns="http://www.w3.org/2000/svg">
<path d="M7.375 10.8119V8.62439H5.1875C4.84229 8.62439 4.5625 8.3446 4.5625 7.99939C4.5625 7.6543 4.84229 7.37439 5.1875 7.37439H7.375V5.18689C7.375 4.8418 7.65479 4.56189 8 4.56189C8.34521 4.56189 8.625 4.8418 8.625 5.18689V7.37439H10.8125C11.1577 7.37439 11.4375 7.6543 11.4375 7.99939C11.4375 8.3446 11.1577 8.62439 10.8125 8.62439H8.625V10.8119C8.625 11.1571 8.34521 11.4369 8 11.4369C7.65479 11.4369 7.375 11.1571 7.375 10.8119ZM13.6569 2.34314C12.1459 0.832153 10.1368 0 8 0C5.86316 0 3.85413 0.832153 2.34314 2.34314C0.832153 3.85413 0 5.86316 0 8C0 10.1368 0.832153 12.1459 2.34314 13.6569C3.85413 15.1678 5.86316 16 8 16C9.46289 16 10.8943 15.6013 12.1394 14.847C12.4347 14.6682 12.5291 14.2839 12.3502 13.9888C12.1714 13.6935 11.787 13.5991 11.4918 13.778C10.442 14.4138 9.2345 14.75 8 14.75C4.27808 14.75 1.25 11.7219 1.25 8C1.25 4.27808 4.27808 1.25 8 1.25C11.7219 1.25 14.75 4.27808 14.75 8C14.75 9.33093 14.3542 10.6263 13.6055 11.7465C13.4136 12.0333 13.4907 12.4215 13.7777 12.6134C14.0646 12.8052 14.4528 12.728 14.6447 12.4412C15.5312 11.1149 16 9.5791 16 8C16 5.86316 15.1678 3.85413 13.6569 2.34314Z" fill="url(#paint0_linear_5133_14903)"/>
<defs>
<linearGradient id="paint0_linear_5133_14903" x1="8" y1="0" x2="8" y2="16" gradientUnits="userSpaceOnUse">
<stop stop-color="#7000FF"/>
<stop offset="1" stop-color="#D785FE"/>
</linearGradient>
</defs>
</svg>
