<svg width="40" height="40" viewBox="0 0 40 40" fill="none" xmlns="http://www.w3.org/2000/svg">
<path d="M25 29.9986V22.8798C25 21.5011 23.8787 20.3798 22.5 20.3798H17.5C16.1212 20.3798 15 21.5011 15 22.8798V29.9986H10.25V18.878C10.8037 18.6936 11.3056 18.3905 11.7244 17.9998C12.4306 18.6836 13.3856 19.1123 14.435 19.1305L14.5 19.1311C15.5719 19.1311 16.5462 18.7048 17.2656 18.013C17.9781 18.6817 18.9337 19.0942 19.9819 19.0986C21.0625 19.0986 22.0412 18.6736 22.7625 17.983C23.4781 18.6548 24.4406 19.0673 25.4956 19.0673C26.5731 19.063 27.5494 18.6373 28.2681 17.9492C28.6881 18.3436 29.1931 18.6486 29.75 18.8342V29.9986H25Z" fill="url(#paint0_linear_5070_14504)"/>
<path d="M11.1687 7.5H28.8312V8.75H11.1687V7.5Z" fill="url(#paint1_linear_5070_14504)"/>
<path d="M22.5 22.2539H17.5C17.155 22.2539 16.875 21.9745 16.875 21.6289C16.875 21.2833 17.155 21.0039 17.5 21.0039H22.5C22.845 21.0039 23.125 21.2833 23.125 21.6289C23.125 21.9745 22.845 22.2539 22.5 22.2539Z" fill="white"/>
<path d="M23.75 31.8739C23.405 31.8739 23.125 31.5945 23.125 31.2489V22.8789C23.125 22.5333 23.405 22.2539 23.75 22.2539C24.095 22.2539 24.375 22.5333 24.375 22.8789V31.2489C24.375 31.5945 24.095 31.8739 23.75 31.8739Z" fill="white"/>
<path d="M23.75 23.5039C23.405 23.5039 23.125 23.2245 23.125 22.8789C23.125 22.5339 22.8444 22.2539 22.5 22.2539C22.155 22.2539 21.875 21.9745 21.875 21.6289C21.875 21.2833 22.155 21.0039 22.5 21.0039C23.5338 21.0039 24.375 21.8452 24.375 22.8789C24.375 23.2245 24.095 23.5039 23.75 23.5039Z" fill="white"/>
<path d="M16.25 31.8739C15.905 31.8739 15.625 31.5945 15.625 31.2489V22.8789C15.625 22.5333 15.905 22.2539 16.25 22.2539C16.595 22.2539 16.875 22.5333 16.875 22.8789V31.2489C16.875 31.5945 16.595 31.8739 16.25 31.8739Z" fill="white"/>
<path d="M16.25 23.5039C15.905 23.5039 15.625 23.2245 15.625 22.8789C15.625 21.8452 16.4662 21.0039 17.5 21.0039C17.845 21.0039 18.125 21.2833 18.125 21.6289C18.125 21.9745 17.845 22.2539 17.5 22.2539C17.1556 22.2539 16.875 22.5339 16.875 22.8789C16.875 23.2245 16.595 23.5039 16.25 23.5039Z" fill="white"/>
<path d="M31.0012 31.8747C30.6562 31.8747 30.3762 31.5953 30.3762 31.2497V17.7891C30.3762 17.4434 30.6562 17.1641 31.0012 17.1641C31.3462 17.1641 31.6262 17.4434 31.6262 17.7891V31.2497C31.6262 31.5953 31.3462 31.8747 31.0012 31.8747Z" fill="white"/>
<path d="M8.99878 31.8739C8.65378 31.8739 8.37378 31.5945 8.37378 31.2489V17.832C8.37378 17.4864 8.65378 17.207 8.99878 17.207C9.34378 17.207 9.62378 17.4864 9.62378 17.832V31.2489C9.62378 31.5945 9.34378 31.8739 8.99878 31.8739Z" fill="white"/>
<path d="M33.75 34.375H6.25C5.905 34.375 5.625 34.0956 5.625 33.75V31.25C5.625 30.9044 5.905 30.625 6.25 30.625H33.75C34.095 30.625 34.375 30.9044 34.375 31.25V33.75C34.375 34.0956 34.095 34.375 33.75 34.375ZM6.875 33.125H33.125V31.875H6.875V33.125Z" fill="white"/>
<path d="M30.0793 8.125C29.7343 8.125 29.4543 7.84562 29.4543 7.5C29.4543 7.155 29.1737 6.875 28.8293 6.875C28.4843 6.875 28.2043 6.59562 28.2043 6.25C28.2043 5.90438 28.4843 5.625 28.8293 5.625C29.8631 5.625 30.7043 6.46625 30.7043 7.5C30.7043 7.84562 30.425 8.125 30.0793 8.125Z" fill="white"/>
<path d="M28.8294 6.875H11.1707C10.8257 6.875 10.5457 6.59562 10.5457 6.25C10.5457 5.90438 10.8257 5.625 11.1707 5.625H28.83C29.175 5.625 29.455 5.90438 29.455 6.25C29.455 6.59562 29.175 6.875 28.8294 6.875Z" fill="white"/>
<path d="M30.0794 10.625H9.92065C9.57565 10.625 9.29565 10.3456 9.29565 10V7.5C9.29565 7.15438 9.57565 6.875 9.92065 6.875C10.2657 6.875 10.5457 7.15438 10.5457 7.5V9.375H29.455V7.5C29.455 7.15438 29.735 6.875 30.08 6.875C30.425 6.875 30.705 7.15438 30.705 7.5V10C30.7044 10.3456 30.425 10.625 30.0794 10.625Z" fill="white"/>
<path d="M9.92065 8.125C9.57565 8.125 9.29565 7.84562 9.29565 7.5C9.29565 6.46625 10.1369 5.625 11.1707 5.625C11.5157 5.625 11.7957 5.90438 11.7957 6.25C11.7957 6.59562 11.5157 6.875 11.1707 6.875C10.8263 6.875 10.5457 7.155 10.5457 7.5C10.5457 7.84562 10.2657 8.125 9.92065 8.125Z" fill="white"/>
<path d="M11.7468 15.7101C11.4124 15.7101 11.1355 15.4463 11.1224 15.1095C11.0387 12.9657 11.9205 10.9313 13.5418 9.52758C13.803 9.30133 14.1974 9.33008 14.4237 9.59133C14.6499 9.85196 14.6212 10.247 14.3605 10.4726C13.0274 11.627 12.303 13.2988 12.3712 15.0607C12.3849 15.4057 12.1162 15.6963 11.7712 15.7095C11.763 15.7101 11.7549 15.7101 11.7468 15.7101Z" fill="white"/>
<path d="M17.2486 15.7102C16.9124 15.7102 16.6349 15.4427 16.6243 15.1046C16.568 13.3015 16.8255 11.5184 17.3899 9.80524C17.4974 9.47774 17.8505 9.29837 18.1793 9.40649C18.5068 9.51462 18.6855 9.86774 18.5774 10.1959C18.0586 11.7709 17.8224 13.409 17.8743 15.0659C17.8849 15.4109 17.6143 15.6996 17.2693 15.7096C17.2618 15.7102 17.2549 15.7102 17.2486 15.7102Z" fill="white"/>
<path d="M22.7513 15.7103C22.7445 15.7103 22.7382 15.7103 22.7313 15.7097C22.3863 15.6991 22.1157 15.4103 22.1263 15.0659C22.1782 13.4091 21.9413 11.7709 21.4232 10.1959C21.3151 9.86843 21.4932 9.51468 21.8213 9.40655C22.1501 9.29843 22.5026 9.47718 22.6107 9.8053C23.1751 11.5184 23.4326 13.3022 23.3763 15.1047C23.3651 15.4428 23.0876 15.7103 22.7513 15.7103Z" fill="white"/>
<path d="M28.2532 15.7101C28.2451 15.7101 28.237 15.7101 28.2282 15.7095C27.8832 15.6963 27.6145 15.4057 27.6282 15.0607C27.697 13.2995 26.972 11.627 25.6389 10.4726C25.3782 10.247 25.3495 9.85196 25.5757 9.59133C25.8014 9.33008 26.1957 9.30133 26.4576 9.52758C28.0789 10.9313 28.9607 12.9657 28.877 15.1095C28.8645 15.4457 28.587 15.7101 28.2532 15.7101Z" fill="white"/>
<path d="M6.25 15.7097C5.905 15.7097 5.625 15.4304 5.625 15.0847C5.625 13.1566 6.595 11.3847 8.21938 10.3454L9.58375 9.47286C9.87438 9.28786 10.2613 9.37286 10.4469 9.66286C10.6331 9.95411 10.5481 10.3404 10.2569 10.5266L8.8925 11.3991C7.62938 12.2066 6.875 13.5847 6.875 15.0847C6.875 15.4297 6.595 15.7097 6.25 15.7097Z" fill="white"/>
<path d="M33.75 15.7102C33.405 15.7102 33.125 15.4308 33.125 15.0852C33.125 13.5858 32.3707 12.2077 31.1069 11.3995L29.7432 10.527C29.4525 10.3408 29.3669 9.95454 29.5532 9.66329C29.7388 9.37267 30.1257 9.28767 30.4163 9.47329L31.7807 10.3458C33.4057 11.3852 34.375 13.157 34.375 15.0852C34.375 15.4302 34.095 15.7102 33.75 15.7102Z" fill="white"/>
<path d="M31.0043 18.4159C29.1974 18.4159 27.6574 16.9072 27.628 15.0959C27.6224 14.7509 27.898 14.4666 28.243 14.4609C28.5911 14.4691 28.8724 14.7309 28.878 15.0759C28.8961 16.2153 29.8661 17.1653 31.0036 17.1653C31.0149 17.1653 31.0255 17.1647 31.0361 17.1647C32.1699 17.1466 33.1074 16.2097 33.1255 15.0759C33.1311 14.7297 33.4399 14.4634 33.7605 14.4609C34.1055 14.4666 34.3811 14.7509 34.3755 15.0959C34.3468 16.8972 32.8574 18.3859 31.0561 18.4153C31.0386 18.4153 31.0211 18.4159 31.0043 18.4159Z" fill="white"/>
<path d="M25.5007 18.4442C24.6157 18.4442 23.7764 18.0955 23.1351 17.4611C22.4895 16.8224 22.1307 15.9792 22.1257 15.0874C22.1239 14.7417 22.402 14.4605 22.7476 14.4586C23.0864 14.4324 23.3739 14.7349 23.3757 15.0799C23.3789 15.6386 23.6057 16.168 24.0139 16.5724C24.422 16.9767 24.9595 17.1824 25.5126 17.1942C26.6526 17.188 27.6214 16.2199 27.6276 15.0799C27.6289 14.7349 27.9139 14.4324 28.2557 14.4586C28.6007 14.4605 28.8795 14.7417 28.8776 15.0874C28.8676 16.928 27.3614 18.4342 25.5195 18.4442C25.5139 18.4442 25.5076 18.4442 25.5007 18.4442Z" fill="white"/>
<path d="M19.9999 18.4766C19.9943 18.4766 19.9881 18.4766 19.9824 18.4766C19.0906 18.4716 18.2474 18.1134 17.6081 17.4678C16.9687 16.8216 16.6193 15.9747 16.6243 15.0828C16.6262 14.7391 16.9056 14.4616 17.2493 14.4616H17.2524C17.5974 14.4634 17.8762 14.7447 17.8743 15.0903C17.8712 15.6484 18.0924 16.1803 18.4962 16.5884C18.9006 16.9972 19.4306 17.2241 19.9887 17.2266C20.5443 17.2397 21.0806 17.0078 21.4868 16.6034C21.8987 16.1941 22.1256 15.6547 22.1256 15.0859C22.1256 14.7403 22.4056 14.4609 22.7506 14.4609C23.0956 14.4609 23.3756 14.7403 23.3756 15.0859C23.3756 15.9897 23.0181 16.8441 22.3687 17.4897C21.7287 18.1266 20.8874 18.4766 19.9999 18.4766Z" fill="white"/>
<path d="M14.4974 18.5068C14.4793 18.5068 14.4618 18.5062 14.4436 18.5062C12.6136 18.4762 11.0924 16.9056 11.1218 15.0768C11.1274 14.7306 11.4274 14.4643 11.7568 14.4618C12.1018 14.4675 12.3774 14.7518 12.3718 15.0968C12.353 16.2493 13.3111 17.2381 14.4636 17.2568C15.033 17.2668 15.5724 17.0443 15.9849 16.6343C16.403 16.2187 16.6299 15.6712 16.6236 15.0937C16.6199 14.7481 16.8974 14.4656 17.2424 14.4618C17.5999 14.4425 17.8699 14.7356 17.8736 15.08C17.883 15.9843 17.5155 16.8737 16.8661 17.52C16.2255 18.1575 15.3861 18.5068 14.4974 18.5068Z" fill="white"/>
<path d="M8.99875 18.4591C7.17 18.4591 5.625 16.9147 5.625 15.0859C5.625 14.7403 5.905 14.4609 6.25 14.4609C6.595 14.4609 6.875 14.7403 6.875 15.0859C6.875 16.2372 7.8475 17.2091 8.99875 17.2091C10.15 17.2091 11.1219 16.2366 11.1219 15.0859C11.1219 14.7403 11.4019 14.4609 11.7469 14.4609C12.0919 14.4609 12.3719 14.7403 12.3719 15.0859C12.3719 16.9147 10.8275 18.4591 8.99875 18.4591Z" fill="white"/>
<defs>
<linearGradient id="paint0_linear_5070_14504" x1="12.3562" y1="16.7723" x2="27.6669" y2="32.083" gradientUnits="userSpaceOnUse">
<stop stop-color="#FFDDF3"/>
<stop offset="1" stop-color="#7900E9"/>
</linearGradient>
<linearGradient id="paint1_linear_5070_14504" x1="15.2725" y1="3.3975" x2="24.7281" y2="12.8531" gradientUnits="userSpaceOnUse">
<stop stop-color="#FFDDF3"/>
<stop offset="1" stop-color="#7900E9"/>
</linearGradient>
</defs>
</svg>
