<svg width="24" height="24" viewBox="0 0 24 24" fill="none" xmlns="http://www.w3.org/2000/svg">
<path d="M2.49998 24H8.84302C10.045 24 11.176 23.532 12.026 22.682L23.147 11.56C23.689 11.018 24 10.268 24 9.498C24 8.73202 23.689 7.98202 23.147 7.44L16.559 0.851999C16.018 0.311016 15.268 0 14.498 0C13.732 0 12.982 0.311016 12.44 0.852983L1.31803 11.975C0.468 12.824 0 13.955 0 15.157V21.5C0 22.879 1.12102 24 2.49998 24ZM5.49998 16C6.879 16 7.99997 17.121 7.99997 18.5C7.99997 19.879 6.87895 21 5.49998 21C4.12102 21 3 19.879 3 18.5C3 17.121 4.12102 16 5.49998 16Z" fill="#4200FF"/>
</svg>
