<svg width="20" height="20" viewBox="0 0 20 20" fill="none" xmlns="http://www.w3.org/2000/svg">
<path d="M2.08332 20H7.36918C8.37086 20 9.31336 19.61 10.0217 18.9017L19.2892 9.63332C19.7408 9.18168 20 8.55668 20 7.915C20 7.27668 19.7408 6.65168 19.2892 6.2L13.7992 0.709999C13.3483 0.25918 12.7233 0 12.0817 0C11.4434 0 10.8184 0.25918 10.3667 0.710819L1.09836 9.97914C0.390001 10.6867 0 11.6292 0 12.6308V17.9167C0 19.0658 0.934179 20 2.08332 20ZM4.58332 13.3333C5.7325 13.3333 6.66664 14.2675 6.66664 15.4166C6.66664 16.5658 5.73246 17.5 4.58332 17.5C3.43418 17.5 2.5 16.5658 2.5 15.4167C2.5 14.2675 3.43418 13.3333 4.58332 13.3333Z" fill="#F3F3F3"/>
</svg>
