<svg width="120" height="120" viewBox="0 0 120 120" fill="none" xmlns="http://www.w3.org/2000/svg">
<path d="M19.9062 11.0695L24.6203 6.35547L26.9774 8.71249L22.2633 13.4266L19.9062 11.0695Z" fill="#4DD163"/>
<path d="M6.35156 24.6208L11.0656 19.9067L13.4226 22.2637L8.70859 26.9778L6.35156 24.6208Z" fill="#4DD163"/>
<path d="M6.94531 8.71103L9.30234 6.354L14.0164 11.0681L11.6594 13.4251L6.94531 8.71103Z" fill="#4DD163"/>
<path d="M60 115C29.6721 115 5 90.3279 5 60C5 29.6721 29.6721 5 60 5C90.3279 5 115 29.6721 115 60C115 90.3279 90.3279 115 60 115ZM60 11.875C33.4625 11.875 11.875 33.4625 11.875 60C11.875 86.5375 33.4625 108.125 60 108.125C86.5375 108.125 108.125 86.5375 108.125 60C108.125 33.4625 86.5375 11.875 60 11.875Z" fill="#4DD163"/>
<path d="M32.5 80.625H87.5V87.5H32.5V80.625Z" fill="#4DD163"/>
<path d="M56.5625 31.3496H63.4375V73.75H56.5625V31.3496Z" fill="#4DD163"/>
<path d="M74.8968 51.113L60.0009 36.2172L45.1051 51.113L40.2422 46.2501L57.5672 28.9251C58.9101 27.5822 61.0872 27.5822 62.4301 28.9251L79.7551 46.2501L74.8968 51.113Z" fill="#4DD163"/>
</svg>