<svg width="16" height="16" viewBox="0 0 16 16" fill="none" xmlns="http://www.w3.org/2000/svg">
<path d="M13.5 0.5625H2.5C1.12146 0.5625 0 1.68396 0 3.0625V11.8125C0 13.191 1.12146 14.3125 2.5 14.3125H8.4375C8.6759 14.3125 8.89355 14.1769 8.99866 13.9628C9.10364 13.7488 9.07776 13.4935 8.93176 13.3051L7.297 11.1923L11.828 5.42896L14.75 8.91479V9.96875C14.75 10.314 15.0298 10.5938 15.375 10.5938C15.7202 10.5938 16 10.314 16 9.96875V3.0625C16 1.68396 14.8785 0.5625 13.5 0.5625V0.5625ZM12.2915 4.03601C12.1705 3.89172 11.9912 3.80933 11.8027 3.81262C11.6144 3.81555 11.4375 3.9032 11.3212 4.05127L6.50818 10.173L4.86926 8.05505C4.75085 7.90198 4.56836 7.8125 4.375 7.8125C4.37476 7.8125 4.37439 7.8125 4.37415 7.8125C4.18042 7.81274 3.99768 7.90283 3.87964 8.0564L2.50415 9.84448C2.2937 10.1182 2.34485 10.5105 2.61841 10.7209C2.89209 10.9315 3.28442 10.8802 3.49487 10.6067L4.37646 9.46069L7.16357 13.0625H2.5C1.81079 13.0625 1.25 12.5017 1.25 11.8125V3.0625C1.25 2.37329 1.81079 1.8125 2.5 1.8125H13.5C14.1892 1.8125 14.75 2.37329 14.75 3.0625V6.96899L12.2915 4.03601ZM4.375 2.8125C3.34106 2.8125 2.5 3.65356 2.5 4.6875C2.5 5.72144 3.34106 6.5625 4.375 6.5625C5.40894 6.5625 6.25 5.72144 6.25 4.6875C6.25 3.65356 5.40894 2.8125 4.375 2.8125ZM4.375 5.3125C4.0304 5.3125 3.75 5.0321 3.75 4.6875C3.75 4.3429 4.0304 4.0625 4.375 4.0625C4.7196 4.0625 5 4.3429 5 4.6875C5 5.0321 4.7196 5.3125 4.375 5.3125ZM16 12.4688C16 12.814 15.7202 13.0938 15.375 13.0938H13.6562V14.8125C13.6562 15.1577 13.3765 15.4375 13.0312 15.4375C12.686 15.4375 12.4062 15.1577 12.4062 14.8125V13.0938H10.6875C10.3423 13.0938 10.0625 12.814 10.0625 12.4688C10.0625 12.1235 10.3423 11.8438 10.6875 11.8438H12.4062V10.125C12.4062 9.77979 12.686 9.5 13.0312 9.5C13.3765 9.5 13.6562 9.77979 13.6562 10.125V11.8438H15.375C15.7202 11.8438 16 12.1235 16 12.4688Z" fill="url(#paint0_linear_4309_11503)"/>
<defs>
<linearGradient id="paint0_linear_4309_11503" x1="0" y1="8" x2="16" y2="8" gradientUnits="userSpaceOnUse">
<stop stop-color="#00F2FE"/>
<stop offset="0.0208" stop-color="#03EFFE"/>
<stop offset="0.2931" stop-color="#24D2FE"/>
<stop offset="0.5538" stop-color="#3CBDFE"/>
<stop offset="0.7956" stop-color="#4AB0FE"/>
<stop offset="1" stop-color="#4FACFE"/>
</linearGradient>
</defs>
</svg>
