<svg width="120" height="120" viewBox="0 0 120 120" fill="none" xmlns="http://www.w3.org/2000/svg">
<g clip-path="url(#clip0)">
<path d="M117.527 86.464L75.1327 15.5169C71.8948 10.1678 66.2644 6.92986 60 6.92986C53.7356 6.92986 48.105 10.1678 44.8671 15.5169L2.47255 86.464C-0.764643 92.0246 -0.83519 98.6408 2.33216 104.201C5.49928 109.761 11.2 113.069 17.6052 113.069H102.394C108.8 113.069 114.501 109.761 117.667 104.201C120.835 98.6408 120.765 92.0246 117.527 86.464Z" fill="#F3574F"/>
<path d="M17.6039 106.032C13.7067 106.032 10.3732 104.094 8.44852 100.719C6.52406 97.3406 6.55828 93.4329 8.55844 90.0032L50.9136 19.1136C52.8519 15.9106 56.2611 13.9688 60.0001 13.9688C63.7391 13.9688 67.1486 15.9103 69.1143 19.1618L111.476 90.0581C113.442 93.4331 113.477 97.3406 111.552 100.719C109.627 104.094 106.294 106.032 102.397 106.032H17.6039V106.032Z" fill="#F3574F"/>
<path d="M67.0456 35.6472V63.8008C67.0456 67.672 63.8782 70.8391 60.0073 70.8391C56.1363 70.8391 52.9688 67.6718 52.9688 63.8008V35.6472C52.9688 31.776 56.1361 28.6086 60.0073 28.6086C63.8785 28.6086 67.0456 31.776 67.0456 35.6472Z" fill="white"/>
<path d="M67.0383 35.6472V63.8008C67.0383 67.672 63.8709 70.8391 60 70.8391V28.6086C63.8709 28.6086 67.0383 31.776 67.0383 35.6472Z" fill="white"/>
<path d="M60.0108 77.8781C54.1688 77.8781 49.4531 82.5935 49.4531 88.4358C49.4531 94.2773 54.1685 98.9934 60.0108 98.9934C65.8531 98.9934 70.5685 94.2776 70.5685 88.4358C70.5685 82.5937 65.8526 77.8781 60.0108 77.8781Z" fill="white"/>
<path d="M70.5577 88.4355C70.5577 94.2771 65.8423 98.9932 60 98.9932V77.8781C65.8418 77.8781 70.5577 82.5937 70.5577 88.4355Z" fill="white"/>
</g>
<defs>
<clipPath id="clip0">
<rect width="120" height="120" fill="white"/>
</clipPath>
</defs>
</svg>
